#!OML:ASF X:\für Bonn\!DataBase\2005_08_10_Bjorn_Final\c3d\bjorn.ASF
:FULLY-SPECIFIED
:DEGREES
49
root 0.74497 14.0834 3.0796 -175.752 -0.0608261 -178.072
lowerback 13.6229 -0.405803 4.3211
upperback 8.65067 1.29442 0.348986
thorax 1.53696 1.37699 -2.20446
lowerneck -16.962 -3.13129 -0.10649
upperneck -5.80009 -5.27261 -0.354379
head 0.973375 -3.1244 -0.407666
rclavicle -1.88845e-014 -1.43125e-014
rhumerus 76.9713 -0.0734569 -77.1195
rradius 9.29073
rwrist 47.6921
rhand -14.5258 9.39489
rfingers 7.12502
rthumb 11.6221 -20.2628
lclavicle -1.88845e-014 -1.43125e-014
lhumerus 78.6881 -14.277 68.059
lradius 8.83791
lwrist -44.5347
lhand -21.387 -6.77843
lfingers 7.12502
lthumb 5.00069 23.1426
rfemur -59.0002 -16.3597 17.8524
rtibia 105.152
rfoot -32.7263 20.5835
rtoes -28.9929
lfemur -59.8578 6.91867 -13.9714
ltibia 108.651
lfoot -27.8224 -4.83541
ltoes -33.1176
50
root 0.734168 13.8372 3.10927 -175.856 -0.157719 -178.127
lowerback 14.3496 1.23775 4.82485
upperback 8.79633 0.806961 0.53626
thorax 1.37101 -0.000866922 -2.26875
lowerneck -17.4042 -3.12114 -0.183333
upperneck -5.86805 -5.28934 -0.263035
head 1.02891 -3.14917 -0.377569
rclavicle 9.24349e-015 4.37326e-015
rhumerus 77.4089 -0.255899 -76.7122
rradius 9.31383
rwrist 47.2741
rhand -14.61 9.4539
rfingers 7.12502
rthumb 11.5408 -20.2084
lclavicle 9.24349e-015 4.37326e-015
lhumerus 79.0419 -13.9859 67.9259
lradius 8.83558
lwrist -44.0986
lhand -21.7365 -6.92346
lfingers 7.12502
lthumb 4.66325 23.0052
rfemur -60.5055 -17.12 17.5635
rtibia 107.502
rfoot -32.6668 21.5133
rtoes -28.7365
lfemur -61.0413 7.52526 -13.9528
ltibia 110.735
lfoot -28.331 -5.51916
ltoes -33.4916
51
root 0.723593 13.5913 3.13768 -175.976 -0.250425 -178.22
lowerback 15.1008 1.20527 4.90576
upperback 8.91253 0.74792 0.500509
thorax 1.10033 -0.0569546 -2.35047
lowerneck -17.6744 -3.12535 -0.272732
upperneck -5.97539 -5.31371 -0.122234
head 1.04413 -3.17213 -0.324795
rclavicle 6.26172e-015 3.97569e-016
rhumerus 77.7565 -0.448602 -76.3221
rradius 9.34181
rwrist 46.8892
rhand -14.6831 9.53985
rfingers 7.12502
rthumb 11.4704 -20.1264
lclavicle 6.26172e-015 3.97569e-016
lhumerus 79.319 -13.7218 67.7913
lradius 8.8962
lwrist -43.6023
lhand -21.9786 -7.06961
lfingers 7.12502
lthumb 4.42942 22.8641
rfemur -61.9748 -17.961 17.2146
rtibia 109.8
rfoot -32.5243 22.5676
rtoes -28.2122
lfemur -62.2156 8.15441 -13.9816
ltibia 112.806
lfoot -28.933 -6.12986
ltoes -33.922
52
root 0.714842 13.3479 3.1641 -176.137 -0.326432 -178.272
lowerback 15.8706 1.17576 4.98139
upperback 9.02795 0.690832 0.496416
thorax 0.821033 -0.115048 -2.39523
lowerneck -17.8266 -3.11347 -0.391558
upperneck -6.14552 -5.31069 0.0354283
head 1.01978 -3.18017 -0.255737
rclavicle -6.75868e-015 -5.96354e-015
rhumerus 78.0648 -0.591714 -75.922
rradius 9.37016
rwrist 46.4379
rhand -14.8141 9.60598
rfingers 7.12502
rthumb 11.3441 -20.0672
lclavicle -6.75868e-015 -5.96354e-015
lhumerus 79.5432 -13.459 67.6892
lradius 8.98422
lwrist -43.1467
lhand -22.1968 -7.09679
lfingers 7.12502
lthumb 4.21871 22.8412
rfemur -63.3728 -18.8568 16.9083
rtibia 112.038
rfoot -32.3811 23.5773
rtoes -27.7374
lfemur -63.3496 8.89346 -13.9333
ltibia 114.864
lfoot -29.5374 -6.83015
ltoes -34.2713
53
root 0.705453 13.109 3.18835 -176.298 -0.402858 -178.327
lowerback 16.6137 1.14308 5.06506
upperback 9.13236 0.633202 0.487699
thorax 0.546575 -0.172106 -2.44787
lowerneck -17.8537 -3.10487 -0.496518
upperneck -6.38217 -5.31395 0.200042
head 0.952162 -3.19109 -0.182741
rclavicle -1.39149e-015 -7.7526e-015
rhumerus 78.2971 -0.711698 -75.5284
rradius 9.51072
rwrist 46.059
rhand -14.8645 9.66546
rfingers 7.12502
rthumb 11.2955 -20.0104
lclavicle -1.39149e-015 -7.7526e-015
lhumerus 79.7873 -13.2192 67.5915
lradius 9.02119
lwrist -42.6562
lhand -22.3557 -7.12463
lfingers 7.12502
lthumb 4.06532 22.8163
rfemur -64.7126 -19.8295 16.5833
rtibia 114.19
rfoot -32.1422 24.7282
rtoes -27.0544
lfemur -64.5378 9.67169 -13.9139
ltibia 116.911
lfoot -30.1154 -7.40269
ltoes -34.7325
54
root 0.698128 12.87 3.21078 -176.479 -0.489479 -178.362
lowerback 17.3429 1.11375 5.16358
upperback 9.2281 0.584375 0.48668
thorax 0.27351 -0.224142 -2.50089
lowerneck -17.7759 -3.10033 -0.609141
upperneck -6.65522 -5.31817 0.338722
head 0.854599 -3.20172 -0.11352
rclavicle 9.93923e-016 2.16675e-014
rhumerus 78.4384 -0.839494 -75.1311
rradius 9.764
rwrist 45.6803
rhand -14.8727 9.67213
rfingers 7.12502
rthumb 11.2876 -20.0042
lclavicle 9.93923e-016 2.16675e-014
lhumerus 79.8689 -13.0593 67.5264
lradius 9.30032
lwrist -42.1907
lhand -22.4099 -7.04191
lfingers 7.12502
lthumb 4.01292 22.9
rfemur -66.0328 -20.9049 16.2845
rtibia 116.31
rfoot -31.9119 25.822
rtoes -26.4431
lfemur -65.7217 10.5182 -13.8546
ltibia 118.937
lfoot -30.6391 -7.96406
ltoes -35.2542
55
root 0.692006 12.6322 3.23092 -176.688 -0.553913 -178.413
lowerback 18.088 1.09451 5.23753
upperback 9.31046 0.54931 0.466346
thorax -0.0193351 -0.269875 -2.56186
lowerneck -17.6311 -3.08246 -0.66089
upperneck -6.95238 -5.3126 0.496506
head 0.737476 -3.20702 -0.0460114
rclavicle 1.07344e-014 1.59028e-015
rhumerus 78.5443 -0.964846 -74.7631
rradius 10.021
rwrist 45.3371
rhand -14.8522 9.67872
rfingers 7.12502
rthumb 11.3073 -19.9965
lclavicle 1.07344e-014 1.59028e-015
lhumerus 79.9788 -12.8902 67.4287
lradius 9.48062
lwrist -41.7703
lhand -22.4198 -7.02378
lfingers 7.12502
lthumb 4.00335 22.9184
rfemur -67.2948 -22.0724 15.9327
rtibia 118.389
rfoot -31.6309 27.0582
rtoes -25.781
lfemur -66.8776 11.4705 -13.8003
ltibia 120.947
lfoot -31.1223 -8.59269
ltoes -35.7744
56
root 0.686967 12.3924 3.24896 -176.918 -0.631164 -178.448
lowerback 18.8529 1.06155 5.30342
upperback 9.37861 0.498438 0.471362
thorax -0.337142 -0.325381 -2.58778
lowerneck -17.4545 -3.06395 -0.752971
upperneck -7.25793 -5.29841 0.638482
head 0.613448 -3.2077 0.0243193
rclavicle 7.35503e-015 4.17448e-015
rhumerus 78.6786 -1.1238 -74.6512
rradius 10.1796
rwrist 45.2341
rhand -14.8634 9.76162
rfingers 7.12502
rthumb 11.2965 -19.9142
lclavicle 7.35503e-015 4.17448e-015
lhumerus 80.0014 -12.7269 67.3706
lradius 9.71549
lwrist -41.3213
lhand -22.3709 -6.98698
lfingers 7.12502
lthumb 4.05058 22.9543
rfemur -68.5303 -23.4104 15.5932
rtibia 120.447
rfoot -31.3279 28.3281
rtoes -25.072
lfemur -68.0414 12.5596 -13.7321
ltibia 122.954
lfoot -31.6125 -9.12512
ltoes -36.4392
57
root 0.682157 12.1522 3.26499 -177.147 -0.696224 -178.501
lowerback 19.617 1.03973 5.33614
upperback 9.43323 0.460589 0.489925
thorax -0.666998 -0.375606 -2.58177
lowerneck -17.2511 -3.04794 -0.851079
upperneck -7.57412 -5.28698 0.738094
head 0.48105 -3.21061 0.0827419
rclavicle 5.76476e-015 3.97569e-016
rhumerus 78.8089 -1.25905 -74.458
rradius 10.2881
rwrist 45.0797
rhand -14.8766 9.8584
rfingers 7.12502
rthumb 11.2838 -19.8181
lclavicle 5.76476e-015 3.97569e-016
lhumerus 79.9958 -12.5886 67.3552
lradius 9.96504
lwrist -40.9085
lhand -22.3425 -6.90552
lfingers 7.12502
lthumb 4.07807 23.0352
rfemur -69.754 -24.8993 15.2226
rtibia 122.479
rfoot -31.1603 29.5793
rtoes -24.7527
lfemur -69.2279 13.79 -13.6861
ltibia 124.953
lfoot -32.087 -9.78355
ltoes -36.9762
58
root 0.677964 11.9076 3.27843 -177.397 -0.76134 -178.537
lowerback 20.3711 1.01686 5.42738
upperback 9.48816 0.43119 0.467826
thorax -0.985639 -0.418357 -2.65289
lowerneck -17.0622 -3.0244 -0.856466
upperneck -7.88551 -5.28109 0.841305
head 0.351155 -3.2182 0.126021
rclavicle -1.2921e-014 -2.70347e-014
rhumerus 78.8624 -1.4546 -74.5059
rradius 10.455
rwrist 45.1046
rhand -14.8123 9.92661
rfingers 7.12502
rthumb 11.3458 -19.7465
lclavicle -1.2921e-014 -2.70347e-014
lhumerus 80.0223 -12.4987 67.2736
lradius 10.199
lwrist -40.5518
lhand -22.2841 -6.89915
lfingers 7.12502
lthumb 4.13447 23.0405
rfemur -70.95 -26.6178 14.838
rtibia 124.507
rfoot -31.0069 30.9236
rtoes -24.422
lfemur -70.4106 15.2478 -13.6161
ltibia 126.966
lfoot -32.5737 -10.4647
ltoes -37.5707
59
root 0.673672 11.6575 3.28887 -177.665 -0.80701 -178.57
lowerback 21.0823 1.00371 5.46719
upperback 9.55908 0.399821 0.496573
thorax -1.26529 -0.465706 -2.63951
lowerneck -16.9256 -2.99345 -0.913819
upperneck -8.15056 -5.2562 0.891882
head 0.245004 -3.21577 0.160294
rclavicle 3.97569e-016 -2.42517e-014
rhumerus 78.9148 -1.54901 -74.2966
rradius 10.6155
rwrist 44.834
rhand -14.7184 9.97514
rfingers 7.12502
rthumb 11.4364 -19.6929
lclavicle 3.97569e-016 -2.42517e-014
lhumerus 80.0171 -12.3668 67.2096
lradius 10.4306
lwrist -40.1409
lhand -22.3 -6.83799
lfingers 7.12502
lthumb 4.11911 23.1019
rfemur -72.1526 -28.6067 14.4136
rtibia 126.549
rfoot -30.9319 32.4252
rtoes -24.256
lfemur -71.6109 16.9914 -13.5561
ltibia 129.003
lfoot -33.1008 -11.1706
ltoes -38.2317
